<?xml version="1.0" encoding="UTF-8"?>
<svg id="Logomark" xmlns="http://www.w3.org/2000/svg" viewBox="0 0 1000 1000">
  <defs>
    <style>
      .cls-1 {
        fill: #ffd9df;
      }

      .cls-2 {
        fill: #fff;
      }

      .cls-3 {
        fill: #ef2938;
      }

      .cls-4 {
        fill: #ffb3c9;
      }
    </style>
  </defs>
  <path class="cls-3" d="M899.41,274.96l9.74,31.42v49.67l-15.45,31.42,15.45,31.42v49.67l-21.99,31.42,21.99,31.42v218.31c0,88.04-71.36,159.44-159.44,159.44H250.28c-88.04,0-159.44-71.4-159.44-159.44V250.25c0-88.04,71.4-159.4,159.44-159.4h499.43c85.84,0,155.79,67.75,159.29,152.69l-9.6,31.42Z"/>
  <g>
    <rect class="cls-1" x="214.61" y="243.53" width="62.86" height="62.86"/>
    <rect class="cls-2" x="277.47" y="243.53" width="62.86" height="62.86"/>
    <rect class="cls-4" x="277.47" y="306.39" width="62.86" height="62.86"/>
  </g>
  <path class="cls-1" d="M785.4,356.04c-98.56,0-191.22,38.38-260.91,108.07-69.69,69.69-108.07,162.35-108.07,260.91v31.43h308.53v-62.86h-244.06c15.79-154.08,146.33-274.69,304.52-274.69h0s123.76-.01,123.76-.01v-62.85h-123.76Z"/>
  <path class="cls-4" d="M909.16,468.56h-123.76c-141.41,0-256.46,115.05-256.46,256.47v31.43h196.01v-62.86h-130.6c15.06-91.86,95-162.17,191.05-162.17v-.02h123.76v-62.84Z"/>
  <path class="cls-2" d="M909.16,250.25c0-2.24-.04-4.48-.14-6.71h-123.6c-128.52,0-251.32,50.11-341.68,141.1-43.88,44.19-78.33,95.68-102.37,153.06-20.83,49.7-33.02,102.02-36.43,155.9h-90.32v62.86H785.4v-62.86H367.92c16.03-216.22,198.4-387.21,417.49-387.21h0s123.75-.01,123.75-.01v-56.13Z"/>
</svg>